<svg xmlns="http://www.w3.org/2000/svg" viewBox="0 0 512 512">
  <rect width="512" height="512" fill="rgb(18, 20, 23)"/>
  <defs><clipPath id="ball"><circle cx="256.0" cy="256.0" r="204.8"/></clipPath></defs>
  <circle cx="256.0" cy="256.0" r="207.872" fill="none" stroke="rgb(22, 24, 27)" stroke-width="6.144"/>
  <circle cx="256.0" cy="256.0" r="204.8" fill="rgb(245, 245, 240)"/>
  <g clip-path="url(#ball)">
    <polygon points="16.56,209.92 56.47,232.96 56.47,279.04 16.56,302.08 -23.35,279.04 -23.35,232.96" fill="rgb(22, 24, 27)"/>
    <polygon points="56.47,279.04 96.37,302.08 96.37,348.16 56.47,371.20 16.56,348.16 16.56,302.08" fill="rgb(245, 245, 240)"/>
    <polygon points="96.37,348.16 136.28,371.20 136.28,417.28 96.37,440.32 56.47,417.28 56.47,371.20" fill="rgb(245, 245, 240)"/>
    <polygon points="136.28,417.28 176.19,440.32 176.19,486.40 136.28,509.44 96.37,486.40 96.37,440.32" fill="rgb(22, 24, 27)"/>
    <polygon points="56.47,140.80 96.37,163.84 96.37,209.92 56.47,232.96 16.56,209.92 16.56,163.84" fill="rgb(245, 245, 240)"/>
    <polygon points="96.37,209.92 136.28,232.96 136.28,279.04 96.37,302.08 56.47,279.04 56.47,232.96" fill="rgb(245, 245, 240)"/>
    <polygon points="136.28,279.04 176.19,302.08 176.19,348.16 136.28,371.20 96.37,348.16 96.37,302.08" fill="rgb(22, 24, 27)"/>
    <polygon points="176.19,348.16 216.09,371.20 216.09,417.28 176.19,440.32 136.28,417.28 136.28,371.20" fill="rgb(245, 245, 240)"/>
    <polygon points="216.09,417.28 256.00,440.32 256.00,486.40 216.09,509.44 176.19,486.40 176.19,440.32" fill="rgb(245, 245, 240)"/>
    <polygon points="96.37,71.68 136.28,94.72 136.28,140.80 96.37,163.84 56.47,140.80 56.47,94.72" fill="rgb(245, 245, 240)"/>
    <polygon points="136.28,140.80 176.19,163.84 176.19,209.92 136.28,232.96 96.37,209.92 96.37,163.84" fill="rgb(22, 24, 27)"/>
    <polygon points="176.19,209.92 216.09,232.96 216.09,279.04 176.19,302.08 136.28,279.04 136.28,232.96" fill="rgb(245, 245, 240)"/>
    <polygon points="216.09,279.04 256.00,302.08 256.00,348.16 216.09,371.20 176.19,348.16 176.19,302.08" fill="rgb(245, 245, 240)"/>
    <polygon points="256.00,348.16 295.91,371.20 295.91,417.28 256.00,440.32 216.09,417.28 216.09,371.20" fill="rgb(22, 24, 27)"/>
    <polygon points="295.91,417.28 335.81,440.32 335.81,486.40 295.91,509.44 256.00,486.40 256.00,440.32" fill="rgb(245, 245, 240)"/>
    <polygon points="136.28,2.56 176.19,25.60 176.19,71.68 136.28,94.72 96.37,71.68 96.37,25.60" fill="rgb(22, 24, 27)"/>
    <polygon points="176.19,71.68 216.09,94.72 216.09,140.80 176.19,163.84 136.28,140.80 136.28,94.72" fill="rgb(245, 245, 240)"/>
    <polygon points="216.09,140.80 256.00,163.84 256.00,209.92 216.09,232.96 176.19,209.92 176.19,163.84" fill="rgb(245, 245, 240)"/>
    <polygon points="256.00,209.92 295.91,232.96 295.91,279.04 256.00,302.08 216.09,279.04 216.09,232.96" fill="rgb(22, 24, 27)"/>
    <polygon points="295.91,279.04 335.81,302.08 335.81,348.16 295.91,371.20 256.00,348.16 256.00,302.08" fill="rgb(245, 245, 240)"/>
    <polygon points="335.81,348.16 375.72,371.20 375.72,417.28 335.81,440.32 295.91,417.28 295.91,371.20" fill="rgb(245, 245, 240)"/>
    <polygon points="375.72,417.28 415.63,440.32 415.63,486.40 375.72,509.44 335.81,486.40 335.81,440.32" fill="rgb(22, 24, 27)"/>
    <polygon points="216.09,2.56 256.00,25.60 256.00,71.68 216.09,94.72 176.19,71.68 176.19,25.60" fill="rgb(245, 245, 240)"/>
    <polygon points="256.00,71.68 295.91,94.72 295.91,140.80 256.00,163.84 216.09,140.80 216.09,94.72" fill="rgb(22, 24, 27)"/>
    <polygon points="295.91,140.80 335.81,163.84 335.81,209.92 295.91,232.96 256.00,209.92 256.00,163.84" fill="rgb(245, 245, 240)"/>
    <polygon points="335.81,209.92 375.72,232.96 375.72,279.04 335.81,302.08 295.91,279.04 295.91,232.96" fill="rgb(245, 245, 240)"/>
    <polygon points="375.72,279.04 415.63,302.08 415.63,348.16 375.72,371.20 335.81,348.16 335.81,302.08" fill="rgb(22, 24, 27)"/>
    <polygon points="415.63,348.16 455.53,371.20 455.53,417.28 415.63,440.32 375.72,417.28 375.72,371.20" fill="rgb(245, 245, 240)"/>
    <polygon points="295.91,2.56 335.81,25.60 335.81,71.68 295.91,94.72 256.00,71.68 256.00,25.60" fill="rgb(245, 245, 240)"/>
    <polygon points="335.81,71.68 375.72,94.72 375.72,140.80 335.81,163.84 295.91,140.80 295.91,94.72" fill="rgb(245, 245, 240)"/>
    <polygon points="375.72,140.80 415.63,163.84 415.63,209.92 375.72,232.96 335.81,209.92 335.81,163.84" fill="rgb(22, 24, 27)"/>
    <polygon points="415.63,209.92 455.53,232.96 455.53,279.04 415.63,302.08 375.72,279.04 375.72,232.96" fill="rgb(245, 245, 240)"/>
    <polygon points="455.53,279.04 495.44,302.08 495.44,348.16 455.53,371.20 415.63,348.16 415.63,302.08" fill="rgb(245, 245, 240)"/>
    <polygon points="375.72,2.56 415.63,25.60 415.63,71.68 375.72,94.72 335.81,71.68 335.81,25.60" fill="rgb(22, 24, 27)"/>
    <polygon points="415.63,71.68 455.53,94.72 455.53,140.80 415.63,163.84 375.72,140.80 375.72,94.72" fill="rgb(245, 245, 240)"/>
    <polygon points="455.53,140.80 495.44,163.84 495.44,209.92 455.53,232.96 415.63,209.92 415.63,163.84" fill="rgb(245, 245, 240)"/>
    <polygon points="495.44,209.92 535.35,232.96 535.35,279.04 495.44,302.08 455.53,279.04 455.53,232.96" fill="rgb(22, 24, 27)"/>
  </g>
</svg>